<svg width="3607" height="2555" viewBox="0 0 3607 2555" fill="none" xmlns="http://www.w3.org/2000/svg">
<rect width="3607" height="2555" fill="white"/>
<path d="M2969.5 1015V986.2H2975.66V1015H2969.5ZM2991.65 1015V986.2H2999.61L3012.41 1011.64L3010.45 1012.12V986.2H3016.45V1015H3008.49L2995.69 989.56L2997.65 989.08V1015H2991.65ZM3032.44 1015V986.2H3040.4L3053.2 1011.64L3051.24 1012.12V986.2H3057.24V1015H3049.28L3036.48 989.56L3038.44 989.08V1015H3032.44ZM3073.23 1015V986.2H3079.39V1015H3073.23ZM3076.11 1015V1010.28H3094.67V1015H3076.11ZM3076.11 1002.6V997.96H3093.27V1002.6H3076.11ZM3076.11 990.92V986.2H3094.19V990.92H3076.11ZM3109.84 1015V986.2H3122.72C3124.8 986.2 3126.61 986.56 3128.16 987.28C3129.7 987.973 3130.9 988.96 3131.76 990.24C3132.61 991.52 3133.04 993.013 3133.04 994.72C3133.04 996.4 3132.61 997.88 3131.76 999.16C3130.9 1000.41 3129.7 1001.4 3128.16 1002.12C3126.61 1002.81 3124.8 1003.16 3122.72 1003.16H3114.72V998.64H3122.56C3124.02 998.64 3125.14 998.307 3125.92 997.64C3126.72 996.947 3127.12 995.987 3127.12 994.76C3127.12 993.507 3126.73 992.56 3125.96 991.92C3125.18 991.253 3124.05 990.92 3122.56 990.92H3116V1015H3109.84ZM3126.08 1015L3114.52 1000.04H3121.04L3134.4 1015H3126.08ZM3181.97 1015.4C3179.89 1015.4 3177.97 1015.04 3176.21 1014.32C3174.45 1013.57 3172.92 1012.53 3171.61 1011.2C3170.33 1009.87 3169.33 1008.29 3168.61 1006.48C3167.89 1004.64 3167.53 1002.64 3167.53 1000.48C3167.53 998.32 3167.88 996.347 3168.57 994.56C3169.29 992.773 3170.29 991.227 3171.57 989.92C3172.88 988.587 3174.41 987.573 3176.17 986.88C3177.93 986.16 3179.87 985.8 3181.97 985.8C3184.35 985.8 3186.48 986.267 3188.37 987.2C3190.29 988.107 3191.85 989.4 3193.05 991.08C3194.28 992.733 3195.03 994.68 3195.29 996.92H3189.29C3188.95 994.867 3188.11 993.32 3186.77 992.28C3185.44 991.213 3183.85 990.68 3182.01 990.68C3180.39 990.68 3178.95 991.067 3177.69 991.84C3176.47 992.613 3175.51 993.733 3174.81 995.2C3174.12 996.64 3173.77 998.387 3173.77 1000.44C3173.77 1002.52 3174.12 1004.32 3174.81 1005.84C3175.53 1007.33 3176.52 1008.49 3177.77 1009.32C3179.03 1010.12 3180.47 1010.52 3182.09 1010.52C3183.83 1010.52 3185.36 1010 3186.69 1008.96C3188.03 1007.92 3188.89 1006.37 3189.29 1004.32H3195.37C3195.03 1006.56 3194.24 1008.52 3193.01 1010.2C3191.79 1011.85 3190.23 1013.13 3188.33 1014.04C3186.44 1014.95 3184.32 1015.4 3181.97 1015.4ZM3219.09 1015.4C3216.96 1015.4 3214.99 1015.04 3213.17 1014.32C3211.39 1013.6 3209.83 1012.59 3208.49 1011.28C3207.19 1009.95 3206.16 1008.37 3205.41 1006.56C3204.69 1004.72 3204.33 1002.69 3204.33 1000.48C3204.33 997.547 3204.96 994.987 3206.21 992.8C3207.47 990.587 3209.2 988.867 3211.41 987.64C3213.65 986.413 3216.2 985.8 3219.05 985.8C3221.96 985.8 3224.52 986.413 3226.73 987.64C3228.95 988.867 3230.68 990.587 3231.93 992.8C3233.21 995.013 3233.85 997.587 3233.85 1000.52C3233.85 1002.71 3233.48 1004.72 3232.73 1006.56C3232.01 1008.37 3230.99 1009.95 3229.65 1011.28C3228.35 1012.59 3226.79 1013.6 3224.97 1014.32C3223.19 1015.04 3221.23 1015.4 3219.09 1015.4ZM3219.05 1010.52C3220.73 1010.52 3222.21 1010.09 3223.49 1009.24C3224.77 1008.39 3225.77 1007.21 3226.49 1005.72C3227.24 1004.2 3227.61 1002.44 3227.61 1000.44C3227.61 998.467 3227.25 996.747 3226.53 995.28C3225.81 993.813 3224.81 992.68 3223.53 991.88C3222.25 991.08 3220.76 990.68 3219.05 990.68C3217.37 990.68 3215.89 991.08 3214.61 991.88C3213.33 992.68 3212.33 993.813 3211.61 995.28C3210.92 996.72 3210.57 998.44 3210.57 1000.44C3210.57 1002.47 3210.93 1004.24 3211.65 1005.76C3212.37 1007.25 3213.37 1008.43 3214.65 1009.28C3215.93 1010.11 3217.4 1010.52 3219.05 1010.52ZM3243.85 1015V986.2H3253.45L3261.45 1013.96H3257.97L3265.97 986.2H3275.61V1015H3269.53V987.92H3270.57L3262.77 1015H3256.41L3248.69 988.16H3249.69V1015H3243.85ZM3286.39 1015V986.2H3300.07C3302.2 986.2 3304.03 986.573 3305.55 987.32C3307.1 988.067 3308.28 989.107 3309.11 990.44C3309.96 991.773 3310.39 993.333 3310.39 995.12C3310.39 996.907 3309.96 998.48 3309.11 999.84C3308.26 1001.2 3307.06 1002.27 3305.51 1003.04C3303.99 1003.79 3302.18 1004.16 3300.07 1004.16H3291.27V999.44H3299.75C3301.16 999.44 3302.26 999.053 3303.03 998.28C3303.83 997.48 3304.23 996.44 3304.23 995.16C3304.23 993.88 3303.83 992.853 3303.03 992.08C3302.26 991.307 3301.16 990.92 3299.75 990.92H3292.55V1015H3286.39ZM3315.7 1015L3326.02 986.2H3331.3L3321.82 1015H3315.7ZM3336.82 1015L3327.38 986.2H3332.9L3343.22 1015H3336.82ZM3321.14 1003.84H3337.3V1008.64H3321.14V1003.84ZM3363.35 1015.36C3359.62 1015.36 3356.63 1014.53 3354.39 1012.88C3352.15 1011.2 3350.85 1008.84 3350.47 1005.8H3356.39C3356.58 1007.35 3357.33 1008.57 3358.63 1009.48C3359.94 1010.36 3361.61 1010.8 3363.63 1010.8C3365.29 1010.8 3366.55 1010.51 3367.43 1009.92C3368.34 1009.33 3368.79 1008.55 3368.79 1007.56C3368.79 1006.63 3368.53 1005.88 3367.99 1005.32C3367.46 1004.73 3366.54 1004.27 3365.23 1003.92L3359.87 1002.44C3357.13 1001.67 3355.11 1000.61 3353.83 999.28C3352.58 997.92 3351.95 996.227 3351.95 994.2C3351.95 992.467 3352.39 990.973 3353.27 989.72C3354.18 988.44 3355.45 987.467 3357.07 986.8C3358.7 986.107 3360.61 985.76 3362.79 985.76C3366.15 985.76 3368.83 986.56 3370.83 988.16C3372.83 989.733 3373.97 991.827 3374.23 994.44H3368.31C3368.05 993.027 3367.39 991.987 3366.35 991.32C3365.34 990.653 3364.03 990.32 3362.43 990.32C3361.05 990.32 3359.94 990.587 3359.11 991.12C3358.29 991.653 3357.87 992.373 3357.87 993.28C3357.87 993.973 3358.1 994.613 3358.55 995.2C3359.01 995.76 3359.95 996.24 3361.39 996.64L3366.75 998.12C3369.58 998.893 3371.61 999.96 3372.83 1001.32C3374.09 1002.65 3374.71 1004.35 3374.71 1006.4C3374.71 1009.28 3373.71 1011.49 3371.71 1013.04C3369.71 1014.59 3366.93 1015.36 3363.35 1015.36ZM3396.25 1015.36C3392.51 1015.36 3389.53 1014.53 3387.29 1012.88C3385.05 1011.2 3383.74 1008.84 3383.37 1005.8H3389.29C3389.47 1007.35 3390.22 1008.57 3391.53 1009.48C3392.83 1010.36 3394.5 1010.8 3396.53 1010.8C3398.18 1010.8 3399.45 1010.51 3400.33 1009.92C3401.23 1009.33 3401.69 1008.55 3401.69 1007.56C3401.69 1006.63 3401.42 1005.88 3400.89 1005.32C3400.35 1004.73 3399.43 1004.27 3398.13 1003.92L3392.77 1002.44C3390.02 1001.67 3388.01 1000.61 3386.73 999.28C3385.47 997.92 3384.85 996.227 3384.85 994.2C3384.85 992.467 3385.29 990.973 3386.17 989.72C3387.07 988.44 3388.34 987.467 3389.97 986.8C3391.59 986.107 3393.5 985.76 3395.69 985.76C3399.05 985.76 3401.73 986.56 3403.73 988.16C3405.73 989.733 3406.86 991.827 3407.13 994.44H3401.21C3400.94 993.027 3400.29 991.987 3399.25 991.32C3398.23 990.653 3396.93 990.32 3395.33 990.32C3393.94 990.32 3392.83 990.587 3392.01 991.12C3391.18 991.653 3390.77 992.373 3390.77 993.28C3390.77 993.973 3390.99 994.613 3391.45 995.2C3391.9 995.76 3392.85 996.24 3394.29 996.64L3399.65 998.12C3402.47 998.893 3404.5 999.96 3405.73 1001.32C3406.98 1002.65 3407.61 1004.35 3407.61 1006.4C3407.61 1009.28 3406.61 1011.49 3404.61 1013.04C3402.61 1014.59 3399.82 1015.36 3396.25 1015.36Z" fill="#333333" fill-opacity="0.9"/>
<path d="M2939.62 1075V1062.24L2940.04 1062.34C2939.88 1062.7 2939.57 1063.06 2939.12 1063.42C2938.66 1063.78 2938.14 1064.09 2937.54 1064.36C2936.95 1064.63 2936.34 1064.81 2935.72 1064.9V1063.36C2936.34 1063.25 2936.94 1063.07 2937.52 1062.8C2938.09 1062.53 2938.6 1062.21 2939.04 1061.84C2939.49 1061.45 2939.82 1061.04 2940.04 1060.6H2941.22V1075H2939.62ZM2951.59 1075.2C2950.46 1075.2 2949.46 1074.89 2948.61 1074.26C2947.77 1073.62 2947.11 1072.74 2946.63 1071.62C2946.16 1070.49 2945.93 1069.19 2945.93 1067.74C2945.93 1066.29 2946.16 1065.01 2946.63 1063.92C2947.1 1062.81 2947.76 1061.95 2948.61 1061.34C2949.46 1060.71 2950.46 1060.4 2951.59 1060.4C2952.72 1060.4 2953.71 1060.71 2954.55 1061.34C2955.4 1061.95 2956.06 1062.81 2956.53 1063.92C2957.01 1065.01 2957.25 1066.29 2957.25 1067.74C2957.25 1069.21 2957.01 1070.5 2956.53 1071.62C2956.06 1072.74 2955.4 1073.62 2954.55 1074.26C2953.71 1074.89 2952.72 1075.2 2951.59 1075.2ZM2951.59 1073.76C2952.4 1073.76 2953.1 1073.52 2953.67 1073.04C2954.24 1072.55 2954.68 1071.85 2954.99 1070.96C2955.3 1070.05 2955.45 1068.97 2955.45 1067.72C2955.45 1066.48 2955.3 1065.42 2954.99 1064.54C2954.7 1063.66 2954.26 1062.99 2953.69 1062.54C2953.12 1062.07 2952.42 1061.84 2951.59 1061.84C2950.76 1061.84 2950.06 1062.07 2949.49 1062.54C2948.92 1063.01 2948.48 1063.68 2948.17 1064.56C2947.88 1065.43 2947.73 1066.48 2947.73 1067.72C2947.73 1068.97 2947.88 1070.05 2948.19 1070.96C2948.5 1071.87 2948.94 1072.56 2949.51 1073.04C2950.08 1073.52 2950.78 1073.76 2951.59 1073.76ZM2967.2 1075.2C2966.07 1075.2 2965.08 1074.89 2964.22 1074.26C2963.38 1073.62 2962.72 1072.74 2962.24 1071.62C2961.78 1070.49 2961.54 1069.19 2961.54 1067.74C2961.54 1066.29 2961.78 1065.01 2962.24 1063.92C2962.71 1062.81 2963.37 1061.95 2964.22 1061.34C2965.08 1060.71 2966.07 1060.4 2967.2 1060.4C2968.34 1060.4 2969.32 1060.71 2970.16 1061.34C2971.02 1061.95 2971.68 1062.81 2972.14 1063.92C2972.62 1065.01 2972.86 1066.29 2972.86 1067.74C2972.86 1069.21 2972.62 1070.5 2972.14 1071.62C2971.68 1072.74 2971.02 1073.62 2970.16 1074.26C2969.32 1074.89 2968.34 1075.2 2967.2 1075.2ZM2967.2 1073.76C2968.02 1073.76 2968.71 1073.52 2969.28 1073.04C2969.86 1072.55 2970.3 1071.85 2970.6 1070.96C2970.91 1070.05 2971.06 1068.97 2971.06 1067.72C2971.06 1066.48 2970.91 1065.42 2970.6 1064.54C2970.31 1063.66 2969.88 1062.99 2969.3 1062.54C2968.73 1062.07 2968.03 1061.84 2967.2 1061.84C2966.38 1061.84 2965.68 1062.07 2965.1 1062.54C2964.53 1063.01 2964.09 1063.68 2963.78 1064.56C2963.49 1065.43 2963.34 1066.48 2963.34 1067.72C2963.34 1068.97 2963.5 1070.05 2963.8 1070.96C2964.11 1071.87 2964.55 1072.56 2965.12 1073.04C2965.7 1073.52 2966.39 1073.76 2967.2 1073.76ZM2976.7 1070.32V1068.8H2983.62V1070.32H2976.7ZM2989.94 1075V1068.48L2984.48 1060.6H2986.48L2991.22 1067.52H2990.46L2995.2 1060.6H2997.04L2991.58 1068.48V1075H2989.94ZM3001.23 1075V1060.6H3002.87V1075H3001.23ZM3002.07 1075V1073.56H3010.87V1075H3002.07ZM3002.07 1068.22V1066.78H3010.15V1068.22H3002.07ZM3002.07 1062.04V1060.6H3010.71V1062.04H3002.07ZM3014.5 1075L3020.06 1060.6H3021.5L3016.08 1075H3014.5ZM3025.94 1075L3020.52 1060.6H3022.06L3027.62 1075H3025.94ZM3017.26 1069.18H3024.78V1070.62H3017.26V1069.18ZM3031.66 1075V1060.6H3036.98C3038 1060.6 3038.88 1060.77 3039.6 1061.1C3040.32 1061.43 3040.86 1061.9 3041.24 1062.5C3041.62 1063.09 3041.82 1063.79 3041.82 1064.6C3041.82 1065.41 3041.62 1066.13 3041.24 1066.74C3040.86 1067.34 3040.32 1067.81 3039.6 1068.16C3038.88 1068.49 3038 1068.66 3036.98 1068.66H3032.86V1067.22H3036.92C3037.98 1067.22 3038.79 1066.99 3039.34 1066.52C3039.9 1066.05 3040.18 1065.41 3040.18 1064.6C3040.18 1063.8 3039.9 1063.17 3039.36 1062.72C3038.81 1062.27 3038 1062.04 3036.92 1062.04H3033.3V1075H3031.66ZM3040.1 1075L3032.44 1067.86H3034.68L3042.58 1075H3040.1ZM3052.79 1075V1060.6H3054.43V1075H3052.79ZM3053.63 1075V1073.56H3061.83V1075H3053.63ZM3071.28 1075.2C3070.28 1075.2 3069.36 1075.02 3068.52 1074.66C3067.69 1074.29 3066.97 1073.77 3066.36 1073.1C3065.74 1072.42 3065.26 1071.63 3064.92 1070.72C3064.58 1069.81 3064.42 1068.82 3064.42 1067.74C3064.42 1066.31 3064.71 1065.05 3065.3 1063.94C3065.88 1062.83 3066.69 1061.97 3067.72 1061.34C3068.76 1060.71 3069.94 1060.4 3071.26 1060.4C3072.6 1060.4 3073.79 1060.71 3074.82 1061.34C3075.86 1061.97 3076.67 1062.83 3077.26 1063.94C3077.84 1065.05 3078.14 1066.32 3078.14 1067.76C3078.14 1068.84 3077.96 1069.83 3077.62 1070.74C3077.28 1071.65 3076.81 1072.43 3076.2 1073.1C3075.58 1073.77 3074.86 1074.29 3074.02 1074.66C3073.18 1075.02 3072.26 1075.2 3071.28 1075.2ZM3071.26 1073.72C3072.28 1073.72 3073.18 1073.47 3073.96 1072.96C3074.74 1072.44 3075.36 1071.73 3075.8 1070.82C3076.24 1069.91 3076.46 1068.88 3076.46 1067.72C3076.46 1066.57 3076.24 1065.56 3075.8 1064.68C3075.37 1063.8 3074.76 1063.11 3073.98 1062.62C3073.2 1062.13 3072.3 1061.88 3071.26 1061.88C3070.22 1061.88 3069.31 1062.13 3068.54 1062.62C3067.76 1063.11 3067.16 1063.8 3066.74 1064.68C3066.31 1065.55 3066.1 1066.56 3066.1 1067.72C3066.1 1068.89 3066.31 1069.93 3066.74 1070.84C3067.18 1071.73 3067.78 1072.44 3068.56 1072.96C3069.33 1073.47 3070.23 1073.72 3071.26 1073.72ZM3089.44 1075.2C3087.97 1075.2 3086.7 1074.9 3085.62 1074.3C3084.54 1073.7 3083.7 1072.86 3083.12 1071.78C3082.53 1070.69 3082.24 1069.4 3082.24 1067.92C3082.24 1066.44 3082.52 1065.14 3083.1 1064.02C3083.68 1062.89 3084.49 1062 3085.52 1061.36C3086.56 1060.72 3087.75 1060.4 3089.1 1060.4C3090.15 1060.4 3091.1 1060.6 3091.96 1061C3092.82 1061.4 3093.53 1061.95 3094.08 1062.66C3094.64 1063.37 3094.98 1064.19 3095.1 1065.12H3093.46C3093.32 1064.13 3092.86 1063.35 3092.08 1062.76C3091.3 1062.17 3090.33 1061.88 3089.16 1061.88C3088.1 1061.88 3087.18 1062.13 3086.4 1062.64C3085.61 1063.13 3085 1063.83 3084.56 1064.72C3084.13 1065.61 3083.92 1066.67 3083.92 1067.88C3083.92 1069.09 3084.14 1070.14 3084.58 1071.02C3085.03 1071.89 3085.68 1072.55 3086.52 1073.02C3087.37 1073.49 3088.39 1073.72 3089.58 1073.72C3090.39 1073.72 3091.12 1073.61 3091.76 1073.38C3092.4 1073.14 3092.98 1072.77 3093.5 1072.28L3095.14 1072.88C3094.4 1073.65 3093.56 1074.23 3092.6 1074.62C3091.65 1075.01 3090.6 1075.2 3089.44 1075.2ZM3093.5 1072.88V1068.22L3094.12 1068.84H3089.56V1067.4H3095.14V1072.88H3093.5ZM3101.27 1075V1073.64H3105.87C3106.75 1073.64 3107.45 1073.4 3107.97 1072.92C3108.49 1072.44 3108.75 1071.79 3108.75 1070.98C3108.75 1070.11 3108.48 1069.42 3107.93 1068.9C3107.39 1068.38 3106.65 1068.12 3105.73 1068.12H3101.27V1066.8H3105.51C3106.42 1066.8 3107.13 1066.58 3107.63 1066.14C3108.14 1065.7 3108.39 1065.08 3108.39 1064.28C3108.39 1063.53 3108.15 1062.96 3107.67 1062.56C3107.21 1062.16 3106.52 1061.96 3105.61 1061.96H3101.27V1060.6H3105.75C3107.07 1060.6 3108.11 1060.91 3108.87 1061.54C3109.65 1062.17 3110.03 1063.02 3110.03 1064.1C3110.03 1064.78 3109.88 1065.39 3109.57 1065.92C3109.27 1066.45 3108.85 1066.87 3108.31 1067.18C3107.78 1067.47 3107.17 1067.62 3106.47 1067.62L3106.57 1067.2C3107.31 1067.2 3107.96 1067.37 3108.53 1067.72C3109.12 1068.07 3109.58 1068.54 3109.91 1069.14C3110.26 1069.73 3110.43 1070.4 3110.43 1071.16C3110.43 1071.92 3110.25 1072.59 3109.87 1073.18C3109.51 1073.75 3109 1074.2 3108.33 1074.52C3107.67 1074.84 3106.89 1075 3106.01 1075H3101.27ZM3100.19 1075V1060.6H3101.83V1075H3100.19ZM3121.34 1075.2C3120.34 1075.2 3119.42 1075.02 3118.58 1074.66C3117.75 1074.29 3117.03 1073.77 3116.42 1073.1C3115.81 1072.42 3115.33 1071.63 3114.98 1070.72C3114.65 1069.81 3114.48 1068.82 3114.48 1067.74C3114.48 1066.31 3114.77 1065.05 3115.36 1063.94C3115.95 1062.83 3116.75 1061.97 3117.78 1061.34C3118.82 1060.71 3120 1060.4 3121.32 1060.4C3122.67 1060.4 3123.85 1060.71 3124.88 1061.34C3125.92 1061.97 3126.73 1062.83 3127.32 1063.94C3127.91 1065.05 3128.2 1066.32 3128.2 1067.76C3128.2 1068.84 3128.03 1069.83 3127.68 1070.74C3127.35 1071.65 3126.87 1072.43 3126.26 1073.1C3125.65 1073.77 3124.92 1074.29 3124.08 1074.66C3123.24 1075.02 3122.33 1075.2 3121.34 1075.2ZM3121.32 1073.72C3122.35 1073.72 3123.25 1073.47 3124.02 1072.96C3124.81 1072.44 3125.42 1071.73 3125.86 1070.82C3126.3 1069.91 3126.52 1068.88 3126.52 1067.72C3126.52 1066.57 3126.3 1065.56 3125.86 1064.68C3125.43 1063.8 3124.83 1063.11 3124.04 1062.62C3123.27 1062.13 3122.36 1061.88 3121.32 1061.88C3120.28 1061.88 3119.37 1062.13 3118.6 1062.62C3117.83 1063.11 3117.23 1063.8 3116.8 1064.68C3116.37 1065.55 3116.16 1066.56 3116.16 1067.72C3116.16 1068.89 3116.37 1069.93 3116.8 1070.84C3117.24 1071.73 3117.85 1072.44 3118.62 1072.96C3119.39 1073.47 3120.29 1073.72 3121.32 1073.72ZM3139.16 1075.2C3138.16 1075.2 3137.24 1075.02 3136.4 1074.66C3135.57 1074.29 3134.85 1073.77 3134.24 1073.1C3133.63 1072.42 3133.15 1071.63 3132.8 1070.72C3132.47 1069.81 3132.3 1068.82 3132.3 1067.74C3132.3 1066.31 3132.59 1065.05 3133.18 1063.94C3133.77 1062.83 3134.57 1061.97 3135.6 1061.34C3136.64 1060.71 3137.82 1060.4 3139.14 1060.4C3140.49 1060.4 3141.67 1060.71 3142.7 1061.34C3143.74 1061.97 3144.55 1062.83 3145.14 1063.94C3145.73 1065.05 3146.02 1066.32 3146.02 1067.76C3146.02 1068.84 3145.85 1069.83 3145.5 1070.74C3145.17 1071.65 3144.69 1072.43 3144.08 1073.1C3143.47 1073.77 3142.74 1074.29 3141.9 1074.66C3141.06 1075.02 3140.15 1075.2 3139.16 1075.2ZM3139.14 1073.72C3140.17 1073.72 3141.07 1073.47 3141.84 1072.96C3142.63 1072.44 3143.24 1071.73 3143.68 1070.82C3144.12 1069.91 3144.34 1068.88 3144.34 1067.72C3144.34 1066.57 3144.12 1065.56 3143.68 1064.68C3143.25 1063.8 3142.65 1063.11 3141.86 1062.62C3141.09 1062.13 3140.18 1061.88 3139.14 1061.88C3138.1 1061.88 3137.19 1062.13 3136.42 1062.62C3135.65 1063.11 3135.05 1063.8 3134.62 1064.68C3134.19 1065.55 3133.98 1066.56 3133.98 1067.72C3133.98 1068.89 3134.19 1069.93 3134.62 1070.84C3135.06 1071.73 3135.67 1072.44 3136.44 1072.96C3137.21 1073.47 3138.11 1073.72 3139.14 1073.72ZM3150.74 1075V1060.6H3152.38V1075H3150.74ZM3152.2 1067.52L3159.68 1060.6H3161.98L3154.34 1067.52H3152.2ZM3160 1075L3152.16 1067.52H3154.34L3162.38 1075H3160ZM3183.36 1075L3175.62 1067.06C3175.18 1066.59 3174.82 1066.17 3174.54 1065.78C3174.26 1065.39 3174.05 1065.02 3173.92 1064.66C3173.78 1064.3 3173.72 1063.93 3173.72 1063.56C3173.72 1062.95 3173.88 1062.41 3174.2 1061.94C3174.52 1061.46 3174.95 1061.09 3175.5 1060.82C3176.06 1060.54 3176.7 1060.4 3177.42 1060.4C3178.11 1060.4 3178.74 1060.53 3179.3 1060.8C3179.86 1061.05 3180.3 1061.41 3180.64 1061.88C3180.97 1062.35 3181.14 1062.91 3181.14 1063.56C3181.14 1064.37 3180.82 1065.09 3180.2 1065.72C3179.57 1066.33 3178.6 1066.85 3177.3 1067.28L3176.46 1066.26C3177.48 1066.01 3178.26 1065.66 3178.78 1065.22C3179.31 1064.77 3179.58 1064.23 3179.58 1063.62C3179.58 1063.03 3179.36 1062.57 3178.92 1062.24C3178.49 1061.91 3177.98 1061.74 3177.38 1061.74C3176.79 1061.74 3176.3 1061.9 3175.9 1062.22C3175.51 1062.54 3175.32 1063 3175.32 1063.6C3175.32 1063.87 3175.37 1064.13 3175.48 1064.4C3175.6 1064.67 3175.8 1064.97 3176.08 1065.32C3176.36 1065.67 3176.76 1066.11 3177.28 1066.64L3185.46 1075H3183.36ZM3177.06 1075.2C3176.02 1075.2 3175.1 1075.02 3174.32 1074.66C3173.53 1074.3 3172.92 1073.79 3172.48 1073.14C3172.05 1072.49 3171.84 1071.73 3171.84 1070.86C3171.84 1069.79 3172.21 1068.86 3172.96 1068.06C3173.7 1067.26 3174.72 1066.73 3176 1066.46L3176.88 1067.46C3176.13 1067.62 3175.5 1067.85 3175 1068.16C3174.49 1068.45 3174.1 1068.81 3173.84 1069.24C3173.58 1069.67 3173.46 1070.16 3173.46 1070.72C3173.46 1071.69 3173.78 1072.45 3174.44 1073C3175.09 1073.55 3175.98 1073.82 3177.12 1073.82C3177.96 1073.82 3178.7 1073.67 3179.34 1073.38C3179.99 1073.09 3180.54 1072.66 3181 1072.1C3181.45 1071.53 3181.79 1070.83 3182.02 1070.02C3182.26 1069.21 3182.38 1068.28 3182.38 1067.24H3183.96C3183.96 1068.21 3183.85 1069.11 3183.64 1069.94C3183.44 1070.77 3183.14 1071.51 3182.74 1072.16C3182.34 1072.81 3181.85 1073.37 3181.28 1073.82C3180.72 1074.26 3180.08 1074.6 3179.38 1074.84C3178.67 1075.08 3177.9 1075.2 3177.06 1075.2ZM3195.7 1075V1060.6H3201.42C3202.44 1060.6 3203.32 1060.77 3204.04 1061.1C3204.76 1061.43 3205.3 1061.91 3205.68 1062.54C3206.06 1063.17 3206.26 1063.92 3206.26 1064.8C3206.26 1065.68 3206.06 1066.44 3205.68 1067.08C3205.3 1067.71 3204.76 1068.19 3204.04 1068.54C3203.32 1068.89 3202.44 1069.06 3201.42 1069.06H3196.9V1067.62H3201.36C3202.42 1067.62 3203.23 1067.38 3203.78 1066.9C3204.34 1066.41 3204.62 1065.71 3204.62 1064.8C3204.62 1063.89 3204.34 1063.21 3203.8 1062.74C3203.25 1062.27 3202.44 1062.04 3201.36 1062.04H3197.34V1075H3195.7ZM3210.63 1075V1060.6H3215.95C3216.97 1060.6 3217.85 1060.77 3218.57 1061.1C3219.29 1061.43 3219.83 1061.9 3220.21 1062.5C3220.59 1063.09 3220.79 1063.79 3220.79 1064.6C3220.79 1065.41 3220.59 1066.13 3220.21 1066.74C3219.83 1067.34 3219.29 1067.81 3218.57 1068.16C3217.85 1068.49 3216.97 1068.66 3215.95 1068.66H3211.83V1067.22H3215.89C3216.95 1067.22 3217.76 1066.99 3218.31 1066.52C3218.87 1066.05 3219.15 1065.41 3219.15 1064.6C3219.15 1063.8 3218.87 1063.17 3218.33 1062.72C3217.78 1062.27 3216.97 1062.04 3215.89 1062.04H3212.27V1075H3210.63ZM3219.07 1075L3211.41 1067.86H3213.65L3221.55 1075H3219.07ZM3231.72 1075.2C3230.72 1075.2 3229.8 1075.02 3228.96 1074.66C3228.13 1074.29 3227.41 1073.77 3226.8 1073.1C3226.18 1072.42 3225.7 1071.63 3225.36 1070.72C3225.02 1069.81 3224.86 1068.82 3224.86 1067.74C3224.86 1066.31 3225.15 1065.05 3225.74 1063.94C3226.32 1062.83 3227.13 1061.97 3228.16 1061.34C3229.2 1060.71 3230.38 1060.4 3231.7 1060.4C3233.04 1060.4 3234.23 1060.71 3235.26 1061.34C3236.3 1061.97 3237.11 1062.83 3237.7 1063.94C3238.28 1065.05 3238.58 1066.32 3238.58 1067.76C3238.58 1068.84 3238.4 1069.83 3238.06 1070.74C3237.72 1071.65 3237.25 1072.43 3236.64 1073.1C3236.02 1073.77 3235.3 1074.29 3234.46 1074.66C3233.62 1075.02 3232.7 1075.2 3231.72 1075.2ZM3231.7 1073.72C3232.72 1073.72 3233.62 1073.47 3234.4 1072.96C3235.18 1072.44 3235.8 1071.73 3236.24 1070.82C3236.68 1069.91 3236.9 1068.88 3236.9 1067.72C3236.9 1066.57 3236.68 1065.56 3236.24 1064.68C3235.81 1063.8 3235.2 1063.11 3234.42 1062.62C3233.64 1062.13 3232.74 1061.88 3231.7 1061.88C3230.66 1061.88 3229.75 1062.13 3228.98 1062.62C3228.2 1063.11 3227.6 1063.8 3227.18 1064.68C3226.75 1065.55 3226.54 1066.56 3226.54 1067.72C3226.54 1068.89 3226.75 1069.93 3227.18 1070.84C3227.62 1071.73 3228.22 1072.44 3229 1072.96C3229.77 1073.47 3230.67 1073.72 3231.7 1073.72ZM3243.56 1075.2C3243.05 1075.2 3242.57 1075.16 3242.1 1075.08C3241.63 1075.01 3241.29 1074.93 3241.08 1074.82V1073.3C3241.4 1073.43 3241.79 1073.55 3242.24 1073.64C3242.69 1073.72 3243.15 1073.76 3243.62 1073.76C3244.58 1073.76 3245.31 1073.55 3245.8 1073.12C3246.29 1072.69 3246.54 1072.04 3246.54 1071.16V1060.6H3248.18V1071.22C3248.18 1072.55 3247.79 1073.55 3247 1074.22C3246.21 1074.87 3245.07 1075.2 3243.56 1075.2ZM3253.5 1075V1060.6H3255.14V1075H3253.5ZM3254.34 1075V1073.56H3263.14V1075H3254.34ZM3254.34 1068.22V1066.78H3262.42V1068.22H3254.34ZM3254.34 1062.04V1060.6H3262.98V1062.04H3254.34ZM3273.53 1075.2C3272.55 1075.2 3271.63 1075.02 3270.79 1074.66C3269.97 1074.29 3269.25 1073.77 3268.63 1073.12C3268.02 1072.45 3267.55 1071.67 3267.21 1070.78C3266.88 1069.87 3266.71 1068.88 3266.71 1067.8C3266.71 1066.72 3266.88 1065.73 3267.21 1064.84C3267.55 1063.93 3268.01 1063.15 3268.61 1062.5C3269.23 1061.83 3269.95 1061.32 3270.77 1060.96C3271.61 1060.59 3272.53 1060.4 3273.51 1060.4C3274.59 1060.4 3275.56 1060.62 3276.41 1061.06C3277.28 1061.5 3277.99 1062.12 3278.53 1062.92C3279.09 1063.72 3279.44 1064.65 3279.57 1065.72H3277.93C3277.77 1064.53 3277.3 1063.6 3276.51 1062.92C3275.74 1062.23 3274.75 1061.88 3273.53 1061.88C3272.51 1061.88 3271.61 1062.13 3270.83 1062.64C3270.06 1063.13 3269.46 1063.83 3269.03 1064.72C3268.61 1065.6 3268.39 1066.63 3268.39 1067.8C3268.39 1068.97 3268.61 1070.01 3269.03 1070.9C3269.46 1071.78 3270.06 1072.47 3270.83 1072.98C3271.61 1073.47 3272.5 1073.72 3273.51 1073.72C3274.75 1073.72 3275.77 1073.37 3276.55 1072.68C3277.35 1071.99 3277.83 1071.05 3277.97 1069.88H3279.61C3279.48 1070.95 3279.13 1071.88 3278.57 1072.68C3278.03 1073.48 3277.32 1074.1 3276.45 1074.54C3275.6 1074.98 3274.63 1075.2 3273.53 1075.2ZM3287.26 1075V1062.04H3282.32V1060.6H3293.84V1062.04H3288.9V1075H3287.26ZM3304.29 1075V1060.6H3310.01C3311.04 1060.6 3311.91 1060.77 3312.63 1061.1C3313.35 1061.43 3313.9 1061.91 3314.27 1062.54C3314.66 1063.17 3314.85 1063.92 3314.85 1064.8C3314.85 1065.68 3314.66 1066.44 3314.27 1067.08C3313.9 1067.71 3313.35 1068.19 3312.63 1068.54C3311.91 1068.89 3311.04 1069.06 3310.01 1069.06H3305.49V1067.62H3309.95C3311.02 1067.62 3311.83 1067.38 3312.37 1066.9C3312.93 1066.41 3313.21 1065.71 3313.21 1064.8C3313.21 1063.89 3312.94 1063.21 3312.39 1062.74C3311.85 1062.27 3311.03 1062.04 3309.95 1062.04H3305.93V1075H3304.29ZM3319.42 1075V1060.6H3321.06V1075H3319.42ZM3320.26 1075V1073.56H3328.46V1075H3320.26ZM3331.98 1075L3337.54 1060.6H3338.98L3333.56 1075H3331.98ZM3343.42 1075L3338 1060.6H3339.54L3345.1 1075H3343.42ZM3334.74 1069.18H3342.26V1070.62H3334.74V1069.18ZM3349.53 1075V1060.6H3351.23L3359.49 1072.72L3359.25 1072.76V1060.6H3360.81V1075H3359.11L3350.85 1062.88L3351.09 1062.84V1075H3349.53ZM3366.26 1075V1060.6H3367.96L3376.22 1072.72L3375.98 1072.76V1060.6H3377.54V1075H3375.84L3367.58 1062.88L3367.82 1062.84V1075H3366.26ZM3382.99 1075V1060.6H3384.63V1075H3382.99ZM3383.83 1075V1073.56H3392.63V1075H3383.83ZM3383.83 1068.22V1066.78H3391.91V1068.22H3383.83ZM3383.83 1062.04V1060.6H3392.47V1062.04H3383.83ZM3397.1 1075V1060.6H3402.42C3403.44 1060.6 3404.32 1060.77 3405.04 1061.1C3405.76 1061.43 3406.3 1061.9 3406.67 1062.5C3407.06 1063.09 3407.26 1063.79 3407.26 1064.6C3407.26 1065.41 3407.06 1066.13 3406.67 1066.74C3406.3 1067.34 3405.76 1067.81 3405.04 1068.16C3404.32 1068.49 3403.44 1068.66 3402.42 1068.66H3398.3V1067.22H3402.36C3403.42 1067.22 3404.23 1066.99 3404.78 1066.52C3405.34 1066.05 3405.62 1065.41 3405.62 1064.6C3405.62 1063.8 3405.34 1063.17 3404.8 1062.72C3404.25 1062.27 3403.44 1062.04 3402.36 1062.04H3398.74V1075H3397.1ZM3405.54 1075L3397.88 1067.86H3400.12L3408.02 1075H3405.54Z" fill="#333333" fill-opacity="0.7"/>
<path d="M3213.17 1146V1131.6H3214.81V1146H3213.17ZM3222.81 1146V1131.6H3224.45V1146H3222.81ZM3214.01 1137.78H3223.53V1139.22H3214.01V1137.78ZM3233.95 1146.2C3232.98 1146.2 3232.12 1145.97 3231.37 1145.52C3230.63 1145.05 3230.04 1144.42 3229.61 1143.62C3229.19 1142.82 3228.97 1141.9 3228.97 1140.86C3228.97 1139.82 3229.18 1138.91 3229.59 1138.12C3230.02 1137.32 3230.61 1136.7 3231.37 1136.26C3232.13 1135.82 3233.01 1135.6 3233.99 1135.6C3234.94 1135.6 3235.76 1135.81 3236.45 1136.22C3237.16 1136.63 3237.7 1137.21 3238.07 1137.96C3238.46 1138.71 3238.65 1139.59 3238.65 1140.6C3238.65 1140.73 3238.65 1140.86 3238.63 1140.98C3238.63 1141.1 3238.62 1141.23 3238.59 1141.38H3230.17V1140.04H3237.61L3237.09 1140.78C3237.09 1139.55 3236.82 1138.61 3236.27 1137.96C3235.74 1137.29 3234.98 1136.96 3233.99 1136.96C3232.98 1136.96 3232.16 1137.31 3231.53 1138.02C3230.92 1138.71 3230.61 1139.65 3230.61 1140.84C3230.61 1142.05 3230.92 1143.03 3231.53 1143.76C3232.16 1144.48 3232.99 1144.84 3234.03 1144.84C3234.69 1144.84 3235.26 1144.7 3235.75 1144.42C3236.25 1144.13 3236.61 1143.71 3236.83 1143.18H3238.35C3238.02 1144.11 3237.46 1144.85 3236.67 1145.4C3235.9 1145.93 3234.99 1146.2 3233.95 1146.2ZM3243.06 1146V1131.6H3244.66V1146H3243.06ZM3249.87 1146V1131.6H3251.47V1146H3249.87ZM3260.91 1146.2C3259.91 1146.2 3259.03 1145.97 3258.27 1145.5C3257.51 1145.03 3256.92 1144.4 3256.49 1143.6C3256.08 1142.79 3255.87 1141.87 3255.87 1140.86C3255.87 1139.83 3256.08 1138.93 3256.51 1138.14C3256.94 1137.35 3257.52 1136.73 3258.27 1136.28C3259.03 1135.83 3259.91 1135.6 3260.91 1135.6C3261.92 1135.6 3262.8 1135.83 3263.55 1136.28C3264.31 1136.73 3264.9 1137.35 3265.31 1138.14C3265.74 1138.93 3265.95 1139.83 3265.95 1140.86C3265.95 1141.87 3265.74 1142.79 3265.31 1143.6C3264.9 1144.4 3264.31 1145.03 3263.55 1145.5C3262.8 1145.97 3261.92 1146.2 3260.91 1146.2ZM3260.91 1144.84C3261.6 1144.84 3262.2 1144.67 3262.71 1144.34C3263.22 1143.99 3263.61 1143.52 3263.89 1142.92C3264.17 1142.32 3264.31 1141.63 3264.31 1140.84C3264.31 1139.67 3264 1138.73 3263.37 1138.02C3262.76 1137.31 3261.94 1136.96 3260.91 1136.96C3259.9 1136.96 3259.08 1137.31 3258.45 1138.02C3257.82 1138.73 3257.51 1139.67 3257.51 1140.84C3257.51 1141.63 3257.65 1142.32 3257.93 1142.92C3258.21 1143.52 3258.6 1143.99 3259.11 1144.34C3259.63 1144.67 3260.23 1144.84 3260.91 1144.84ZM3269.31 1148.88V1148.06C3269.7 1147.91 3269.98 1147.68 3270.15 1147.36C3270.33 1147.05 3270.41 1146.58 3270.41 1145.94L3271.03 1146H3269.31V1143.96H3271.33V1145.58C3271.33 1146.43 3271.17 1147.14 3270.85 1147.7C3270.53 1148.26 3270.02 1148.65 3269.31 1148.88ZM3283.36 1150.1L3285.64 1144.8L3286 1144.24L3289.34 1135.8H3290.97L3285.06 1150.1H3283.36ZM3285.82 1146.1L3281.24 1135.8H3283L3286.94 1145.02L3285.82 1146.1ZM3298.93 1146.2C3297.93 1146.2 3297.05 1145.97 3296.29 1145.5C3295.53 1145.03 3294.94 1144.4 3294.51 1143.6C3294.1 1142.79 3293.89 1141.87 3293.89 1140.86C3293.89 1139.83 3294.1 1138.93 3294.53 1138.14C3294.96 1137.35 3295.54 1136.73 3296.29 1136.28C3297.05 1135.83 3297.93 1135.6 3298.93 1135.6C3299.94 1135.6 3300.82 1135.83 3301.57 1136.28C3302.33 1136.73 3302.92 1137.35 3303.33 1138.14C3303.76 1138.93 3303.97 1139.83 3303.97 1140.86C3303.97 1141.87 3303.76 1142.79 3303.33 1143.6C3302.92 1144.4 3302.33 1145.03 3301.57 1145.5C3300.82 1145.97 3299.94 1146.2 3298.93 1146.2ZM3298.93 1144.84C3299.62 1144.84 3300.22 1144.67 3300.73 1144.34C3301.24 1143.99 3301.63 1143.52 3301.91 1142.92C3302.19 1142.32 3302.33 1141.63 3302.33 1140.84C3302.33 1139.67 3302.02 1138.73 3301.39 1138.02C3300.78 1137.31 3299.96 1136.96 3298.93 1136.96C3297.92 1136.96 3297.1 1137.31 3296.47 1138.02C3295.84 1138.73 3295.53 1139.67 3295.53 1140.84C3295.53 1141.63 3295.67 1142.32 3295.95 1142.92C3296.23 1143.52 3296.62 1143.99 3297.13 1144.34C3297.65 1144.67 3298.25 1144.84 3298.93 1144.84ZM3311.69 1146.2C3311.02 1146.2 3310.43 1146.07 3309.91 1145.8C3309.39 1145.52 3308.98 1145.13 3308.69 1144.64C3308.4 1144.13 3308.25 1143.55 3308.25 1142.9V1135.8H3309.85V1142.48C3309.85 1143.25 3310.04 1143.83 3310.41 1144.22C3310.8 1144.61 3311.34 1144.8 3312.05 1144.8C3312.69 1144.8 3313.26 1144.65 3313.75 1144.36C3314.24 1144.07 3314.63 1143.66 3314.91 1143.14C3315.2 1142.61 3315.35 1142 3315.35 1141.32L3315.61 1143.74C3315.28 1144.5 3314.76 1145.1 3314.05 1145.54C3313.34 1145.98 3312.56 1146.2 3311.69 1146.2ZM3315.45 1146V1143.6H3315.35V1135.8H3316.95V1146H3315.45ZM3322.15 1146V1135.8H3323.65V1138.4H3323.75V1146H3322.15ZM3323.75 1140.68L3323.49 1138.26C3323.73 1137.39 3324.15 1136.73 3324.77 1136.28C3325.38 1135.83 3326.09 1135.6 3326.89 1135.6C3327.22 1135.6 3327.45 1135.63 3327.57 1135.68V1137.22C3327.5 1137.19 3327.41 1137.18 3327.29 1137.18C3327.17 1137.17 3327.02 1137.16 3326.85 1137.16C3325.83 1137.16 3325.06 1137.47 3324.53 1138.08C3324.01 1138.68 3323.75 1139.55 3323.75 1140.68ZM3338.49 1146V1134.36C3338.49 1133.43 3338.76 1132.7 3339.29 1132.18C3339.84 1131.66 3340.66 1131.4 3341.77 1131.4C3342.04 1131.4 3342.24 1131.41 3342.39 1131.44C3342.55 1131.47 3342.68 1131.5 3342.79 1131.54V1132.8C3342.7 1132.77 3342.56 1132.75 3342.39 1132.72C3342.23 1132.69 3342.06 1132.68 3341.87 1132.68C3341.26 1132.68 3340.8 1132.83 3340.51 1133.14C3340.23 1133.45 3340.09 1133.88 3340.09 1134.44V1146H3338.49ZM3336.39 1137.16V1135.8H3342.57V1137.16H3336.39ZM3349.85 1146.2C3349.18 1146.2 3348.59 1146.07 3348.07 1145.8C3347.55 1145.52 3347.14 1145.13 3346.85 1144.64C3346.55 1144.13 3346.41 1143.55 3346.41 1142.9V1135.8H3348.01V1142.48C3348.01 1143.25 3348.19 1143.83 3348.57 1144.22C3348.95 1144.61 3349.5 1144.8 3350.21 1144.8C3350.85 1144.8 3351.41 1144.65 3351.91 1144.36C3352.4 1144.07 3352.79 1143.66 3353.07 1143.14C3353.36 1142.61 3353.51 1142 3353.51 1141.32L3353.77 1143.74C3353.43 1144.5 3352.91 1145.1 3352.21 1145.54C3351.5 1145.98 3350.71 1146.2 3349.85 1146.2ZM3353.61 1146V1143.6H3353.51V1135.8H3355.11V1146H3353.61ZM3364.32 1146.18C3363.19 1146.18 3362.36 1145.93 3361.84 1145.42C3361.34 1144.9 3361.08 1144.15 3361.08 1143.18V1133.42L3362.68 1132.82V1143.16C3362.68 1143.73 3362.83 1144.15 3363.12 1144.42C3363.42 1144.69 3363.9 1144.82 3364.56 1144.82C3364.83 1144.82 3365.06 1144.81 3365.24 1144.78C3365.44 1144.74 3365.6 1144.69 3365.72 1144.64V1146C3365.59 1146.05 3365.4 1146.09 3365.14 1146.12C3364.9 1146.16 3364.63 1146.18 3364.32 1146.18ZM3358.98 1137.16V1135.8H3365.72V1137.16H3358.98ZM3373.01 1146.2C3372.34 1146.2 3371.75 1146.07 3371.23 1145.8C3370.71 1145.52 3370.3 1145.13 3370.01 1144.64C3369.71 1144.13 3369.57 1143.55 3369.57 1142.9V1135.8H3371.17V1142.48C3371.17 1143.25 3371.35 1143.83 3371.73 1144.22C3372.11 1144.61 3372.66 1144.8 3373.37 1144.8C3374.01 1144.8 3374.57 1144.65 3375.07 1144.36C3375.56 1144.07 3375.95 1143.66 3376.23 1143.14C3376.52 1142.61 3376.67 1142 3376.67 1141.32L3376.93 1143.74C3376.59 1144.5 3376.07 1145.1 3375.37 1145.54C3374.66 1145.98 3373.87 1146.2 3373.01 1146.2ZM3376.77 1146V1143.6H3376.67V1135.8H3378.27V1146H3376.77ZM3383.46 1146V1135.8H3384.96V1138.4H3385.06V1146H3383.46ZM3385.06 1140.68L3384.8 1138.26C3385.04 1137.39 3385.47 1136.73 3386.08 1136.28C3386.7 1135.83 3387.4 1135.6 3388.2 1135.6C3388.54 1135.6 3388.76 1135.63 3388.88 1135.68V1137.22C3388.82 1137.19 3388.72 1137.18 3388.6 1137.18C3388.48 1137.17 3388.34 1137.16 3388.16 1137.16C3387.15 1137.16 3386.38 1137.47 3385.84 1138.08C3385.32 1138.68 3385.06 1139.55 3385.06 1140.68ZM3396.79 1146.2C3395.82 1146.2 3394.96 1145.97 3394.21 1145.52C3393.47 1145.05 3392.88 1144.42 3392.45 1143.62C3392.03 1142.82 3391.81 1141.9 3391.81 1140.86C3391.81 1139.82 3392.02 1138.91 3392.43 1138.12C3392.86 1137.32 3393.45 1136.7 3394.21 1136.26C3394.97 1135.82 3395.85 1135.6 3396.83 1135.6C3397.78 1135.6 3398.6 1135.81 3399.29 1136.22C3400 1136.63 3400.54 1137.21 3400.91 1137.96C3401.3 1138.71 3401.49 1139.59 3401.49 1140.6C3401.49 1140.73 3401.49 1140.86 3401.47 1140.98C3401.47 1141.1 3401.46 1141.23 3401.43 1141.38H3393.01V1140.04H3400.45L3399.93 1140.78C3399.93 1139.55 3399.66 1138.61 3399.11 1137.96C3398.58 1137.29 3397.82 1136.96 3396.83 1136.96C3395.82 1136.96 3395 1137.31 3394.37 1138.02C3393.76 1138.71 3393.45 1139.65 3393.45 1140.84C3393.45 1142.05 3393.76 1143.03 3394.37 1143.76C3395 1144.48 3395.83 1144.84 3396.87 1144.84C3397.53 1144.84 3398.1 1144.7 3398.59 1144.42C3399.09 1144.13 3399.45 1143.71 3399.67 1143.18H3401.19C3400.86 1144.11 3400.3 1144.85 3399.51 1145.4C3398.74 1145.93 3397.83 1146.2 3396.79 1146.2ZM3404.92 1146V1143.94H3406.98V1146H3404.92Z" fill="#333333" fill-opacity="0.7"/>
<path d="M3171 850V930" stroke="#333333" stroke-opacity="0.9"/>
<path d="M3211.5 889.5L3131.5 889.5" stroke="#333333" stroke-opacity="0.9"/>
<path d="M3185.29 875.504L3157 903.788" stroke="#333333" stroke-opacity="0.9"/>
<path d="M3186 903.788L3157.71 875.504" stroke="#333333" stroke-opacity="0.9"/>
<circle cx="3171" cy="889.5" r="3" fill="#333333" fill-opacity="0.9"/>
<path d="M201.94 1023.2L207.58 1010.72L208.62 1009L213.9 994.6H220.3L207.94 1023.2H201.94ZM206.26 1014.6L198.42 994.6H204.9L211.34 1012.84L206.26 1014.6ZM243.674 1015.4C241.434 1015.4 239.46 1014.96 237.754 1014.08C236.074 1013.17 234.754 1011.92 233.794 1010.32C232.86 1008.69 232.394 1006.83 232.394 1004.72C232.394 1002.61 232.86 1000.77 233.794 999.2C234.754 997.627 236.074 996.4 237.754 995.52C239.46 994.64 241.434 994.2 243.674 994.2C245.94 994.2 247.914 994.64 249.594 995.52C251.3 996.4 252.62 997.627 253.554 999.2C254.487 1000.77 254.954 1002.61 254.954 1004.72C254.954 1006.83 254.474 1008.69 253.514 1010.32C252.58 1011.92 251.26 1013.17 249.554 1014.08C247.874 1014.96 245.914 1015.4 243.674 1015.4ZM243.674 1010.68C244.607 1010.68 245.447 1010.44 246.194 1009.96C246.967 1009.48 247.58 1008.8 248.034 1007.92C248.487 1007.01 248.714 1005.93 248.714 1004.68C248.714 1002.84 248.22 1001.43 247.234 1000.44C246.274 999.427 245.087 998.92 243.674 998.92C242.26 998.92 241.06 999.427 240.074 1000.44C239.114 1001.45 238.634 1002.87 238.634 1004.68C238.634 1005.93 238.86 1007.01 239.314 1007.92C239.767 1008.8 240.367 1009.48 241.114 1009.96C241.887 1010.44 242.74 1010.68 243.674 1010.68ZM276.734 1015.4C275.294 1015.4 274.054 1015.09 273.014 1014.48C272.001 1013.84 271.228 1013 270.694 1011.96C270.161 1010.89 269.894 1009.71 269.894 1008.4V994.6H275.894V1007.24C275.894 1008.36 276.174 1009.2 276.734 1009.76C277.294 1010.32 278.081 1010.6 279.094 1010.6C280.001 1010.6 280.801 1010.39 281.494 1009.96C282.188 1009.53 282.734 1008.95 283.134 1008.2C283.561 1007.43 283.774 1006.55 283.774 1005.56L284.294 1010.48C283.628 1011.95 282.654 1013.13 281.374 1014.04C280.094 1014.95 278.548 1015.4 276.734 1015.4ZM283.894 1015V1010.2H283.774V994.6H289.774V1015H283.894ZM306.588 1015V994.6H312.468V999.4H312.588V1015H306.588ZM312.588 1004.36L312.068 999.52C312.548 997.787 313.334 996.467 314.428 995.56C315.521 994.653 316.881 994.2 318.508 994.2C319.014 994.2 319.388 994.253 319.628 994.36V999.96C319.494 999.907 319.308 999.88 319.068 999.88C318.828 999.853 318.534 999.84 318.188 999.84C316.268 999.84 314.854 1000.19 313.948 1000.88C313.041 1001.55 312.588 1002.71 312.588 1004.36ZM363.382 1015.4C361.249 1015.4 359.369 1014.95 357.742 1014.04C356.116 1013.13 354.836 1011.88 353.902 1010.28C352.996 1008.68 352.542 1006.85 352.542 1004.8C352.542 1002.75 352.996 1000.92 353.902 999.32C354.836 997.72 356.116 996.467 357.742 995.56C359.369 994.653 361.249 994.2 363.382 994.2C365.169 994.2 366.769 994.533 368.182 995.2C369.622 995.84 370.796 996.733 371.702 997.88C372.636 999.027 373.236 1000.37 373.502 1001.92H367.702C367.409 1000.93 366.876 1000.19 366.102 999.68C365.356 999.173 364.476 998.92 363.462 998.92C362.502 998.92 361.662 999.16 360.942 999.64C360.249 1000.12 359.716 1000.8 359.342 1001.68C358.969 1002.56 358.782 1003.6 358.782 1004.8C358.782 1006 358.969 1007.04 359.342 1007.92C359.716 1008.8 360.249 1009.48 360.942 1009.96C361.662 1010.44 362.502 1010.68 363.462 1010.68C364.476 1010.68 365.356 1010.43 366.102 1009.92C366.876 1009.41 367.409 1008.67 367.702 1007.68H373.502C373.236 1009.23 372.636 1010.57 371.702 1011.72C370.796 1012.87 369.622 1013.77 368.182 1014.44C366.769 1015.08 365.169 1015.4 363.382 1015.4ZM388.603 1015V986.2H394.603V1015H388.603ZM402.803 1015V1002.36C402.803 1001.24 402.51 1000.4 401.923 999.84C401.363 999.28 400.536 999 399.443 999C398.51 999 397.67 999.213 396.923 999.64C396.203 1000.07 395.63 1000.65 395.203 1001.4C394.803 1002.15 394.603 1003.03 394.603 1004.04L394.083 999.12C394.75 997.627 395.723 996.44 397.003 995.56C398.31 994.653 399.91 994.2 401.803 994.2C404.07 994.2 405.803 994.84 407.003 996.12C408.203 997.373 408.803 999.067 408.803 1001.2V1015H402.803ZM425.369 1015V994.6H431.249V999.4H431.369V1015H425.369ZM431.369 1004.36L430.849 999.52C431.329 997.787 432.115 996.467 433.209 995.56C434.302 994.653 435.662 994.2 437.289 994.2C437.795 994.2 438.169 994.253 438.409 994.36V999.96C438.275 999.907 438.089 999.88 437.849 999.88C437.609 999.853 437.315 999.84 436.969 999.84C435.049 999.84 433.635 1000.19 432.729 1000.88C431.822 1001.55 431.369 1002.71 431.369 1004.36ZM462.674 1015.4C460.434 1015.4 458.46 1014.96 456.754 1014.08C455.074 1013.17 453.754 1011.92 452.794 1010.32C451.86 1008.69 451.394 1006.83 451.394 1004.72C451.394 1002.61 451.86 1000.77 452.794 999.2C453.754 997.627 455.074 996.4 456.754 995.52C458.46 994.64 460.434 994.2 462.674 994.2C464.94 994.2 466.914 994.64 468.594 995.52C470.3 996.4 471.62 997.627 472.554 999.2C473.487 1000.77 473.954 1002.61 473.954 1004.72C473.954 1006.83 473.474 1008.69 472.514 1010.32C471.58 1011.92 470.26 1013.17 468.554 1014.08C466.874 1014.96 464.914 1015.4 462.674 1015.4ZM462.674 1010.68C463.607 1010.68 464.447 1010.44 465.194 1009.96C465.967 1009.48 466.58 1008.8 467.034 1007.92C467.487 1007.01 467.714 1005.93 467.714 1004.68C467.714 1002.84 467.22 1001.43 466.234 1000.44C465.274 999.427 464.087 998.92 462.674 998.92C461.26 998.92 460.06 999.427 459.074 1000.44C458.114 1001.45 457.634 1002.87 457.634 1004.68C457.634 1005.93 457.86 1007.01 458.314 1007.92C458.767 1008.8 459.367 1009.48 460.114 1009.96C460.887 1010.44 461.74 1010.68 462.674 1010.68ZM489.134 1015V994.6H495.014V999.4H495.134V1015H489.134ZM503.334 1015V1002.36C503.334 1001.24 503.041 1000.4 502.454 999.84C501.894 999.28 501.068 999 499.974 999C499.041 999 498.201 999.213 497.454 999.64C496.734 1000.07 496.161 1000.65 495.734 1001.4C495.334 1002.15 495.134 1003.03 495.134 1004.04L494.614 999.12C495.281 997.627 496.254 996.44 497.534 995.56C498.841 994.653 500.441 994.2 502.334 994.2C504.601 994.2 506.334 994.84 507.534 996.12C508.734 997.373 509.334 999.067 509.334 1001.2V1015H503.334ZM525.666 1015V994.6H531.666V1015H525.666ZM525.466 991.88V985.4H531.866V991.88H525.466ZM557.609 1015.4C555.475 1015.4 553.595 1014.95 551.969 1014.04C550.342 1013.13 549.062 1011.88 548.129 1010.28C547.222 1008.68 546.769 1006.85 546.769 1004.8C546.769 1002.75 547.222 1000.92 548.129 999.32C549.062 997.72 550.342 996.467 551.969 995.56C553.595 994.653 555.475 994.2 557.609 994.2C559.395 994.2 560.995 994.533 562.409 995.2C563.849 995.84 565.022 996.733 565.929 997.88C566.862 999.027 567.462 1000.37 567.729 1001.92H561.929C561.635 1000.93 561.102 1000.19 560.329 999.68C559.582 999.173 558.702 998.92 557.689 998.92C556.729 998.92 555.889 999.16 555.169 999.64C554.475 1000.12 553.942 1000.8 553.569 1001.68C553.195 1002.56 553.009 1003.6 553.009 1004.8C553.009 1006 553.195 1007.04 553.569 1007.92C553.942 1008.8 554.475 1009.48 555.169 1009.96C555.889 1010.44 556.729 1010.68 557.689 1010.68C558.702 1010.68 559.582 1010.43 560.329 1009.92C561.102 1009.41 561.635 1008.67 561.929 1007.68H567.729C567.462 1009.23 566.862 1010.57 565.929 1011.72C565.022 1012.87 563.849 1013.77 562.409 1014.44C560.995 1015.08 559.395 1015.4 557.609 1015.4ZM582.83 1015V986.2H588.83V1015H582.83ZM615.211 1015.4C612.944 1015.4 610.971 1014.96 609.291 1014.08C607.611 1013.17 606.304 1011.92 605.371 1010.32C604.464 1008.72 604.011 1006.88 604.011 1004.8C604.011 1002.69 604.464 1000.85 605.371 999.28C606.304 997.68 607.598 996.44 609.251 995.56C610.904 994.653 612.824 994.2 615.011 994.2C617.118 994.2 618.944 994.627 620.491 995.48C622.038 996.333 623.238 997.52 624.091 999.04C624.944 1000.56 625.371 1002.35 625.371 1004.4C625.371 1004.83 625.358 1005.23 625.331 1005.6C625.304 1005.95 625.264 1006.28 625.211 1006.6H607.531V1002.64H620.371L619.331 1003.36C619.331 1001.71 618.931 1000.49 618.131 999.72C617.358 998.92 616.291 998.52 614.931 998.52C613.358 998.52 612.131 999.053 611.251 1000.12C610.398 1001.19 609.971 1002.79 609.971 1004.92C609.971 1007 610.398 1008.55 611.251 1009.56C612.131 1010.57 613.438 1011.08 615.171 1011.08C616.131 1011.08 616.958 1010.92 617.651 1010.6C618.344 1010.28 618.864 1009.76 619.211 1009.04H624.851C624.184 1011.01 623.038 1012.57 621.411 1013.72C619.811 1014.84 617.744 1015.4 615.211 1015.4Z" fill="#D1D1D1"/>
</svg>
